<svg xmlns="http://www.w3.org/2000/svg" width="256" height="256" viewBox="0 0 256 256" role="img" aria-label="worklog icon">
  <defs>
    <linearGradient id="bg" x1="0" y1="0" x2="1" y2="1">
      <stop offset="0" stop-color="#0f172a"/>
      <stop offset="1" stop-color="#111827"/>
    </linearGradient>
    <linearGradient id="accent" x1="0" y1="0" x2="1" y2="1">
      <stop offset="0" stop-color="#5eead4"/>
      <stop offset="1" stop-color="#60a5fa"/>
    </linearGradient>
  </defs>
  <rect width="256" height="256" rx="56" fill="url(#bg)"/>
  <path d="M74 48h78l38 38v122H74z" fill="#f8fafc" opacity=".96"/>
  <path d="M152 48v40h38" fill="#cbd5e1"/>
  <path d="M92 111h72M92 139h72M92 167h44" stroke="#334155" stroke-width="10" stroke-linecap="round"/>
  <path d="M56 196c28-16 38-16 62 0s34 16 62 0" fill="none" stroke="url(#accent)" stroke-width="12" stroke-linecap="round"/>
  <circle cx="56" cy="196" r="13" fill="#5eead4"/>
  <circle cx="118" cy="196" r="13" fill="#60a5fa"/>
  <circle cx="180" cy="196" r="13" fill="#a78bfa"/>
  <path d="M197 114l7 17 18 7-18 7-7 18-7-18-18-7 18-7z" fill="#facc15"/>
</svg>
